<?xml version="1.0" standalone="no"?>
<!DOCTYPE svg PUBLIC "-//W3C//DTD SVG 20010904//EN"
 "http://www.w3.org/TR/2001/REC-SVG-20010904/DTD/svg10.dtd">
<svg version="1.0" xmlns="http://www.w3.org/2000/svg"
 width="65.000000pt" height="65.000000pt" viewBox="0 0 65.000000 65.000000"
 preserveAspectRatio="xMidYMid meet">

<g transform="translate(0.000000,65.000000) scale(0.100000,-0.100000)"
fill="#000000" stroke="none">
<path d="M252 407 c-1 -10 -6 -16 -11 -13 -5 3 -15 -2 -22 -11 -11 -13 -11
-17 -1 -20 6 -3 12 -13 12 -23 0 -24 18 -36 26 -17 3 8 4 34 1 58 -2 24 -4 36
-5 26z"/>
<path d="M329 324 c-10 -13 -10 -17 2 -24 10 -7 15 -4 18 8 2 9 8 20 15 24 7
5 5 8 -5 8 -9 0 -22 -7 -30 -16z"/>
<path d="M295 237 c0 -35 19 -67 39 -67 6 0 12 9 12 20 0 11 -4 20 -9 20 -5 0
-6 9 -2 19 4 14 0 23 -14 30 -27 15 -27 15 -26 -22z"/>
</g>
</svg>
